int melody[] ={
NOTE_A5, NOTE_F5, NOTE_D5, NOTE_A4, NOTE_A5, NOTE_F5, NOTE_D5, NOTE_A4, NOTE_A5,NOTE_F5, NOTE_D5, NOTE_A4, NOTE_A5,

NOTE_F5, NOTE_D5, NOTE_A4, NOTE_G5, NOTE_E5, NOTE_CS5, NOTE_A4, NOTE_G5, NOTE_E5, NOTE_CS5, NOTE_A4, NOTE_G5,

NOTE_E5, NOTE_CS5, NOTE_A4, NOTE_G5, NOTE_E5, NOTE_CS5, NOTE_A4, NOTE_AS5, NOTE_G5, NOTE_E5, NOTE_CS5,

NOTE_AS5, NOTE_G5, NOTE_E5, NOTE_CS5, NOTE_AS5, NOTE_G5, NOTE_E5, NOTE_CS5, NOTE_AS5, NOTE_G5, NOTE_F5, NOTE_E5,

NOTE_G6, NOTE_F6, NOTE_E6, NOTE_D6, NOTE_CS6, NOTE_AS5, NOTE_A5, NOTE_G5, NOTE_F5, NOTE_E5, NOTE_D5,

NOTE_CS5, NOTE_A4, NOTE_D5,

END,

}; 


int noteDurations[] = {
  4,4,2,4,2,2,2,2,2,2,2,2,2,

  2,4,4,4,2,2,4,2,2,2,2,2,

  2,2,2,2,2,4,6,4,4,2,2,

  2,2,2,2,2,2,2,2,2,2,4,8,

  2,4,2,2,2,2,2,2,2,6,6,

  8,2,16,
};



int melody2[] ={

NOTE_G2, NOTE_G2, NOTE_G2, NOTE_G2, NOTE_G2, NOTE_G2, NOTE_G2, NOTE_G2, NOTE_DS2,NOTE_DS2,NOTE_DS2,

NOTE_G2, NOTE_G2, NOTE_G2, NOTE_G2, NOTE_G2, NOTE_G2, NOTE_G2, NOTE_G2, NOTE_DS2,NOTE_DS2,NOTE_DS2,

NOTE_G2, NOTE_G2, NOTE_G2, NOTE_G2, NOTE_G2, NOTE_G2, NOTE_G2, NOTE_G2, NOTE_DS2,NOTE_DS2,NOTE_DS2,

NOTE_G2, NOTE_G2, NOTE_G2, NOTE_G2, NOTE_G2, NOTE_G2, NOTE_G2, NOTE_G2, NOTE_DS2,NOTE_DS2,NOTE_DS2,

NOTE_G4, NOTE_G4, NOTE_G4, NOTE_D4, NOTE_AS4, 

NOTE_G4, NOTE_D4, NOTE_AS4, NOTE_G4,

NOTE_D5, NOTE_D5, NOTE_D5, NOTE_DS5, NOTE_AS4,

NOTE_FS4, NOTE_D4, NOTE_AS4, NOTE_G4,

NOTE_G5, NOTE_G4, NOTE_G4, NOTE_G5, NOTE_FS5, NOTE_F5,

NOTE_E5, NOTE_DS5, NOTE_E5, NOTE_GS4, NOTE_CS5, NOTE_C5, NOTE_B4,

NOTE_AS4, NOTE_A4, NOTE_AS4, NOTE_D4, NOTE_FS4, NOTE_D4, NOTE_FS4,

NOTE_AS4, NOTE_G4, NOTE_AS4, NOTE_D5, 

NOTE_G5, NOTE_G4, NOTE_G4, NOTE_G5, NOTE_GS5, NOTE_F5,

NOTE_E5, NOTE_DS5, NOTE_E5, NOTE_GS4, NOTE_CS5, NOTE_C5, NOTE_B4,

NOTE_AS4, NOTE_A4, NOTE_AS4, NOTE_D4, NOTE_FS4, NOTE_D4, NOTE_FS4,

NOTE_G4, NOTE_D4, NOTE_AS4, NOTE_G4, 

NOTE_G2, NOTE_G2, NOTE_G2, NOTE_G2, NOTE_G2, NOTE_G2, NOTE_G2, NOTE_G2, NOTE_DS2,NOTE_DS2,NOTE_DS2,

NOTE_G2, NOTE_G2, NOTE_G2, NOTE_G2, NOTE_G2, NOTE_G2, NOTE_G2, NOTE_G2, NOTE_DS2,NOTE_DS2,NOTE_DS2,

NOTE_G3, NOTE_G3,NOTE_G3,NOTE_AS3,NOTE_G3,NOTE_AS3, NOTE_G3,NOTE_AS3, NOTE_G3,NOTE_AS4,NOTE_FS4,NOTE_AS4,NOTE_FS4,

NOTE_G2, NOTE_AS3, NOTE_D4, NOTE_D4, NOTE_B3, NOTE_DS4, NOTE_DS4, NOTE_CS4, NOTE_F4, NOTE_F4, NOTE_G2, NOTE_AS3, NOTE_G4, NOTE_G4, NOTE_B3, NOTE_GS4, NOTE_GS4, NOTE_AS4,

NOTE_D3,NOTE_D4, NOTE_D5, NOTE_D5,NOTE_DS4, NOTE_DS5, NOTE_DS5, NOTE_C4, NOTE_C5,NOTE_C5, NOTE_D3, NOTE_D4, NOTE_AS4, NOTE_AS4 ,NOTE_AS3, NOTE_A4,NOTE_A4,NOTE_CS4,NOTE_FS4,NOTE_FS4,

NOTE_D3,NOTE_FS4, NOTE_D5, NOTE_D5,NOTE_G4, NOTE_CS5, NOTE_CS5,NOTE_DS4,NOTE_A4,NOTE_A4,NOTE_E4,NOTE_C5,NOTE_C5,NOTE_D4,NOTE_AS4,NOTE_AS4,NOTE_AS3,NOTE_FS4,NOTE_FS4,NOTE_FS3,NOTE_DS4,NOTE_DS4,

NOTE_D3,NOTE_D4, NOTE_D5, NOTE_D5,NOTE_DS4, NOTE_DS5, NOTE_DS5, NOTE_C4, NOTE_C5,NOTE_C5, NOTE_D2,NOTE_D3, NOTE_AS4, NOTE_AS4, NOTE_AS3 ,NOTE_A4,NOTE_A4,NOTE_DS4,NOTE_FS4,NOTE_FS4,

NOTE_D3, NOTE_D5, NOTE_G5, NOTE_G5,NOTE_AS4,NOTE_D5,NOTE_D5,NOTE_G4,NOTE_AS4,NOTE_AS4,NOTE_C4,NOTE_GS4,NOTE_GS4,NOTE_GS3,NOTE_DS4,NOTE_DS4,NOTE_DS3,NOTE_B3,NOTE_B3,NOTE_B2,NOTE_GS3,NOTE_GS3,

NOTE_G2,NOTE_D3,NOTE_AS3,NOTE_G3,NOTE_DS3,NOTE_C4,NOTE_G3,NOTE_C3,NOTE_A3,NOTE_G2,NOTE_G2,NOTE_AS3,NOTE_G4,NOTE_D4,NOTE_A3,NOTE_A4,NOTE_D4,NOTE_FS4,

NOTE_G2, NOTE_FS3,NOTE_D4,NOTE_D4,NOTE_G3,NOTE_CS4,NOTE_CS4,NOTE_CS3,NOTE_A3,NOTE_A3,NOTE_DS3,NOTE_C4,NOTE_C4,NOTE_D3,NOTE_AS3,NOTE_AS3,NOTE_AS2,NOTE_FS3,NOTE_FS3,NOTE_G2,NOTE_DS3,NOTE_DS3,

NOTE_GS2,NOTE_GS3,NOTE_B4,NOTE_B4,NOTE_B3,NOTE_AS4,NOTE_AS4,NOTE_D4,NOTE_G4,NOTE_G4,NOTE_GS2,NOTE_AS3,NOTE_DS5,NOTE_DS5,NOTE_DS4,NOTE_D5,NOTE_D5,NOTE_G4,NOTE_B4,NOTE_B4,

NOTE_GS2,NOTE_DS3,NOTE_B4,NOTE_B4,NOTE_G3,NOTE_AS4,NOTE_AS4,NOTE_B3,NOTE_D4,NOTE_D4,NOTE_C4,NOTE_GS4,NOTE_GS4,NOTE_GS3,NOTE_G4,NOTE_G4,NOTE_GS3,NOTE_E4,NOTE_E4,NOTE_DS3,NOTE_GS3,NOTE_GS3,
END,
};

// note durations: 8 = quarter note, 4 = 8th note, etc.

int noteDurations2[] = {   
   
8,4,1.333,1.333,1.333,4,2,2,2,2,4,
8,4,1.333,1.333,1.333,4,2,2,2,2,4,
8,4,1.333,1.333,1.333,4,2,2,2,2,4,
8,4,1.333,1.333,1.333,4,2,2,2,2,4,
8,8,8,6,2,
8,6,2,16,
8,8,8,6,2,
8,6,2,16,
8,6,2,8,6,2,
2,2,8,4,8,6,2,
2,2,8,4,8,6,2,
8,6,2,16,
8,4,4,8,6,2,
2,2,8,4,8,6,2,
2,2,8,4,8,6,2,
8,6,2,16,
8,4,1.333,1.333,1.333,4,2,2,2,2,4,
8,4,1.333,1.333,1.333,4,2,2,2,2,4,
8,4,1.333,1.333,1.333,4,1.333,1.333,1.333,1.333,1.333,1.333,4,
4,1.33,1.33,1.33,1.33,1.33,1.33,1.33,1.33,1.33,4,1.33,1.33,1.33,1.33,1.33,1.33,4,
4,1.33,1.33,1.33,1.33,1.33,1.33,1.33,1.33,1.33,4,1.33,1.33,1.33,1.33,1.33,1.33,1.33,1.33,1.33,
4,1.33,1.33,1.33,1.33,1.33,1.33,1.33,1.33,1.33,1.33,1.33,1.33,1.33,1.33,1.33,1.33,1.33,1.33,1.33,1.33,1.33,
4,1.33,1.33,1.33,1.33,1.33,1.33,1.33,1.33,1.33,4,1.33,1.33,1.33,1.33,1.33,1.33,1.33,1.33,1.33,
4,1.33,1.33,1.33,1.33,1.33,1.33,1.33,1.33,1.33,1.33,1.33,1.33,1.33,1.33,1.33,1.33,1.33,1.33,1.33,1.33,1.33,
4,1.33,1.33,1.33,1.33,1.33,1.33,1.33,1.33,1.33,4,1.33,1.33,1.33,1.33,1.33,1.33,4,
4,1.33,1.33,1.33,1.33,1.33,1.33,1.33,1.33,1.33,1.33,1.33,1.33,1.33,1.33,1.33,1.33,1.33,1.33,1.33,1.33,1.33,
2,1.33,1.33,1.33,1.33,1.33,1.33,1.33,1.33,1.33,4,1.33,1.33,1.33,1.33,1.33,1.33,1.33,1.33,1.33,
4,1.33,1.33,1.33,1.33,1.33,1.33,1.33,1.33,1.33,1.33,1.33,1.33,1.33,1.33,1.33,1.33,1.33,1.33,1.33,1.33,8,

};



void starwars(){
  int speed=90;  //higher value, slower notes
    for (int thisNote = 0; melody2[thisNote]!=-1; thisNote++) {
      int noteDuration = speed*noteDurations2[thisNote];
      tone(3, melody2[thisNote],noteDuration*.95);
      Serial.println(melody2[thisNote]);

      delay(noteDuration);

      noTone(5);
      }
}

void theboys(){
  int speed=100;  //higher value, slower notes
    for (int thisNote = 0; melody[thisNote]!=-1; thisNote++) {
      int noteDuration = speed*noteDurations[thisNote];
      tone(3, melody[thisNote],noteDuration*.95);
      Serial.println(melody[thisNote]);

      delay(noteDuration);

      noTone(3);
      }
}



void setup() {

  Serial.begin(9600);
  starwars();
  //theboys();


}
